<?xml version="1.0" standalone="no"?><!DOCTYPE svg PUBLIC "-//W3C//DTD SVG 1.1//EN" "http://www.w3.org/Graphics/SVG/1.1/DTD/svg11.dtd"><svg class="icon" width="48px" height="48.00px" viewBox="0 0 1024 1024" version="1.1" xmlns="http://www.w3.org/2000/svg"><path d="M955.59168 990.17728h-91.20768v-121.61536h121.61536v88.17152c-3.05152 16.7168-13.69088 28.88192-30.40768 33.44384z m-258.44224-167.22944v-76.01664h-76.0064v243.24096h-45.60896c-34.96448 0-28.89216-63.85664-28.89216-115.53792v-209.792s0-69.92896-1.52064-92.73856c-1.51552-30.40256 39.53152-22.79936 77.5424-22.79936h196.11136v167.22432h91.20256c1.52576-56.2432 0-167.22432 0-167.22432s74.496-3.03616 76.01664 33.44896v106.41408c-3.0464 36.48512 0 133.78048 0 133.78048h-288.8448z m258.44224-334.44864H575.5392c-16.72192 0-30.40768-13.68064-30.40768-30.40256v-380.0576c0-16.72704 13.69088-30.40256 30.40768-30.40256h380.05248c16.72192 0 30.40256 13.68064 30.40256 30.40256v380.0576c0 16.7168-13.68576 30.40256-30.40256 30.40256z m-45.61408-364.85632h-287.31392c-1.52064 0-1.52064 1.52064-1.52064 4.56192v285.80352h288.83456V123.64288z m-159.616 79.0528c45.60896-9.12384 82.08896 22.80448 82.08896 63.85152 1.52576 54.72768-56.24832 85.13024-98.81088 62.32576-50.17088-25.83552-47.1296-114.01216 16.72192-126.17728z m-296.448 787.4816H73.86112c-16.72704 0-30.40256-13.69088-30.40256-30.40256v-380.05248c0-16.72192 13.68064-30.40768 30.40256-30.40768h380.05248c16.72192 0 30.40256 13.69088 30.40256 30.40768v380.05248c0.00512 16.71168-13.68064 30.40256-30.40256 30.40256z m-45.60384-364.85632H120.9856c-1.52064 0-1.52064 1.52064-1.52064 4.56192v285.7984h288.83968v-290.36032h0.00512z m-159.62624 79.04768c45.60896-9.11872 82.09408 22.79936 82.09408 63.85152 1.52064 54.72768-56.24832 85.13024-98.816 62.33088-50.16576-25.85088-47.12448-114.0224 16.72192-126.1824zM453.9136 488.4992H73.86112c-16.72704 0-30.40256-13.68064-30.40256-30.40256v-380.0576c0-16.72704 13.68064-30.40256 30.40256-30.40256h380.05248c16.72192 0 30.40256 13.68064 30.40256 30.40256v380.0576c0.00512 16.7168-13.68064 30.40256-30.40256 30.40256z m-45.60384-364.85632H120.9856c-1.52064 0-1.52064 1.52064-1.52064 4.56192v285.80352h288.83968V123.64288h0.00512z m-159.62624 79.0528c45.60896-9.12384 82.09408 22.80448 82.09408 63.85152 1.52064 54.72768-56.24832 85.13024-98.816 62.32576-50.16576-25.83552-47.12448-114.01216 16.72192-126.17728z m570.09152 787.4816h-121.6256v-121.61536h121.6256v121.61536z" fill="#040000" /></svg>